<svg width="129" height="20" viewBox="0 0 129 20" fill="none" xmlns="http://www.w3.org/2000/svg">
<path d="M115.64 16.328C115.192 15.592 114.848 14.748 114.608 13.796C114.368 12.836 114.248 11.808 114.248 10.712C114.248 9.616 114.368 8.588 114.608 7.628C114.848 6.66 115.192 5.816 115.64 5.096H116.456C115.984 5.904 115.636 6.772 115.412 7.7C115.196 8.628 115.088 9.632 115.088 10.712C115.088 11.792 115.196 12.796 115.412 13.724C115.636 14.652 115.984 15.52 116.456 16.328H115.64ZM122.385 9.596C122.913 9.772 123.317 10.036 123.597 10.388C123.885 10.74 124.029 11.164 124.029 11.66C124.029 12.148 123.897 12.576 123.633 12.944C123.369 13.304 122.989 13.584 122.493 13.784C122.005 13.976 121.429 14.072 120.765 14.072C119.757 14.072 118.965 13.856 118.389 13.424C117.813 12.992 117.525 12.404 117.525 11.66C117.525 11.156 117.661 10.732 117.933 10.388C118.213 10.036 118.617 9.772 119.145 9.596C118.713 9.428 118.385 9.188 118.161 8.876C117.937 8.556 117.825 8.18 117.825 7.748C117.825 7.068 118.089 6.528 118.617 6.128C119.153 5.728 119.869 5.528 120.765 5.528C121.357 5.528 121.873 5.62 122.313 5.804C122.761 5.98 123.109 6.236 123.357 6.572C123.605 6.908 123.729 7.3 123.729 7.748C123.729 8.18 123.613 8.556 123.381 8.876C123.149 9.188 122.817 9.428 122.385 9.596ZM118.689 7.772C118.689 8.236 118.873 8.604 119.241 8.876C119.609 9.148 120.117 9.284 120.765 9.284C121.413 9.284 121.921 9.148 122.289 8.876C122.665 8.604 122.853 8.24 122.853 7.784C122.853 7.312 122.661 6.94 122.277 6.668C121.901 6.396 121.397 6.26 120.765 6.26C120.125 6.26 119.617 6.396 119.241 6.668C118.873 6.94 118.689 7.308 118.689 7.772ZM120.765 13.34C121.509 13.34 122.089 13.188 122.505 12.884C122.929 12.58 123.141 12.168 123.141 11.648C123.141 11.128 122.929 10.72 122.505 10.424C122.089 10.12 121.509 9.968 120.765 9.968C120.029 9.968 119.449 10.12 119.025 10.424C118.609 10.72 118.401 11.128 118.401 11.648C118.401 12.176 118.609 12.592 119.025 12.896C119.441 13.192 120.021 13.34 120.765 13.34ZM125.082 16.328C125.554 15.52 125.902 14.656 126.126 13.736C126.35 12.808 126.462 11.8 126.462 10.712C126.462 9.624 126.35 8.62 126.126 7.7C125.902 6.772 125.554 5.904 125.082 5.096H125.898C126.346 5.816 126.69 6.66 126.93 7.628C127.178 8.588 127.302 9.616 127.302 10.712C127.302 11.808 127.182 12.836 126.942 13.796C126.702 14.756 126.354 15.6 125.898 16.328H125.082Z" fill="#5D5D5D"/>
<path d="M14.6333 17.5C14.5 17.5005 14.3686 17.4691 14.25 17.4083L9.99998 15.1833L5.74999 17.4083C5.61198 17.4809 5.45638 17.5133 5.30088 17.5018C5.14538 17.4904 4.99622 17.4355 4.87034 17.3435C4.74447 17.2515 4.64694 17.126 4.58883 16.9813C4.53073 16.8366 4.51438 16.6785 4.54165 16.525L5.37498 11.8333L1.94165 8.5C1.83453 8.3931 1.75854 8.25905 1.72184 8.11224C1.68514 7.96543 1.68911 7.81139 1.73332 7.66666C1.78162 7.51856 1.87047 7.38696 1.98978 7.28679C2.10909 7.18663 2.25409 7.12192 2.40832 7.1L7.15832 6.40833L9.24999 2.13333C9.31822 1.99244 9.42477 1.87362 9.55741 1.79047C9.69006 1.70733 9.84344 1.66324 9.99998 1.66324C10.1565 1.66324 10.3099 1.70733 10.4426 1.79047C10.5752 1.87362 10.6817 1.99244 10.75 2.13333L12.8667 6.4L17.6167 7.09166C17.7709 7.11358 17.9159 7.1783 18.0352 7.27846C18.1545 7.37862 18.2434 7.51022 18.2917 7.65833C18.3359 7.80306 18.3398 7.95709 18.3031 8.10391C18.2664 8.25072 18.1904 8.38477 18.0833 8.49166L14.65 11.825L15.4833 16.5167C15.5131 16.6729 15.4975 16.8344 15.4384 16.982C15.3794 17.1297 15.2793 17.2574 15.15 17.35C14.9991 17.4557 14.8174 17.5085 14.6333 17.5Z" fill="#FFBA3E"/>
<path d="M37.6333 17.5C37.5 17.5005 37.3686 17.4691 37.25 17.4083L33 15.1833L28.75 17.4083C28.612 17.4809 28.4564 17.5133 28.3009 17.5018C28.1454 17.4904 27.9962 17.4355 27.8703 17.3435C27.7445 17.2515 27.6469 17.126 27.5888 16.9813C27.5307 16.8366 27.5144 16.6785 27.5417 16.525L28.375 11.8333L24.9417 8.5C24.8345 8.3931 24.7585 8.25905 24.7218 8.11224C24.6851 7.96543 24.6891 7.81139 24.7333 7.66666C24.7816 7.51856 24.8705 7.38696 24.9898 7.28679C25.1091 7.18663 25.2541 7.12192 25.4083 7.1L30.1583 6.40833L32.25 2.13333C32.3182 1.99244 32.4248 1.87362 32.5574 1.79047C32.6901 1.70733 32.8434 1.66324 33 1.66324C33.1565 1.66324 33.3099 1.70733 33.4426 1.79047C33.5752 1.87362 33.6817 1.99244 33.75 2.13333L35.8667 6.4L40.6167 7.09166C40.7709 7.11358 40.9159 7.1783 41.0352 7.27846C41.1545 7.37862 41.2434 7.51022 41.2917 7.65833C41.3359 7.80306 41.3398 7.95709 41.3031 8.10391C41.2664 8.25072 41.1904 8.38477 41.0833 8.49166L37.65 11.825L38.4833 16.5167C38.5131 16.6729 38.4975 16.8344 38.4384 16.982C38.3794 17.1297 38.2793 17.2574 38.15 17.35C37.9991 17.4557 37.8174 17.5085 37.6333 17.5Z" fill="#FFBA3E"/>
<path d="M59.6334 17.5C59.5001 17.5005 59.3687 17.4691 59.25 17.4083L55 15.1833L50.75 17.4083C50.612 17.4809 50.4564 17.5133 50.3009 17.5018C50.1454 17.4904 49.9963 17.4355 49.8704 17.3435C49.7445 17.2515 49.647 17.126 49.5889 16.9813C49.5308 16.8366 49.5144 16.6785 49.5417 16.525L50.375 11.8333L46.9417 8.5C46.8346 8.3931 46.7586 8.25905 46.7219 8.11224C46.6852 7.96543 46.6892 7.81139 46.7334 7.66666C46.7817 7.51856 46.8705 7.38696 46.9898 7.28679C47.1091 7.18663 47.2541 7.12192 47.4084 7.1L52.1584 6.40833L54.25 2.13333C54.3183 1.99244 54.4248 1.87362 54.5575 1.79047C54.6901 1.70733 54.8435 1.66324 55 1.66324C55.1566 1.66324 55.31 1.70733 55.4426 1.79047C55.5753 1.87362 55.6818 1.99244 55.75 2.13333L57.8667 6.4L62.6167 7.09166C62.7709 7.11358 62.9159 7.1783 63.0353 7.27846C63.1546 7.37862 63.2434 7.51022 63.2917 7.65833C63.3359 7.80306 63.3399 7.95709 63.3032 8.10391C63.2665 8.25072 63.1905 8.38477 63.0834 8.49166L59.65 11.825L60.4834 16.5167C60.5131 16.6729 60.4976 16.8344 60.4385 16.982C60.3794 17.1297 60.2793 17.2574 60.15 17.35C59.9991 17.4557 59.8174 17.5085 59.6334 17.5Z" fill="#FFBA3E"/>
<path d="M82.6334 17.5C82.5001 17.5005 82.3687 17.4691 82.25 17.4083L78 15.1833L73.75 17.4083C73.612 17.4809 73.4564 17.5133 73.3009 17.5018C73.1454 17.4904 72.9963 17.4355 72.8704 17.3435C72.7445 17.2515 72.647 17.126 72.5889 16.9813C72.5308 16.8366 72.5144 16.6785 72.5417 16.525L73.375 11.8333L69.9417 8.5C69.8346 8.3931 69.7586 8.25905 69.7219 8.11224C69.6852 7.96543 69.6892 7.81139 69.7334 7.66666C69.7817 7.51856 69.8705 7.38696 69.9898 7.28679C70.1091 7.18663 70.2541 7.12192 70.4084 7.1L75.1584 6.40833L77.25 2.13333C77.3183 1.99244 77.4248 1.87362 77.5575 1.79047C77.6901 1.70733 77.8435 1.66324 78 1.66324C78.1566 1.66324 78.31 1.70733 78.4426 1.79047C78.5753 1.87362 78.6818 1.99244 78.75 2.13333L80.8667 6.4L85.6167 7.09166C85.7709 7.11358 85.9159 7.1783 86.0353 7.27846C86.1546 7.37862 86.2434 7.51022 86.2917 7.65833C86.3359 7.80306 86.3399 7.95709 86.3032 8.10391C86.2665 8.25072 86.1905 8.38477 86.0834 8.49166L82.65 11.825L83.4834 16.5167C83.5131 16.6729 83.4976 16.8344 83.4385 16.982C83.3794 17.1297 83.2793 17.2574 83.15 17.35C82.9991 17.4557 82.8174 17.5085 82.6334 17.5Z" fill="#FFBA3E"/>
<path d="M104.633 17.5C104.5 17.5005 104.369 17.4691 104.25 17.4083L100 15.1833L95.75 17.4083C95.612 17.4809 95.4564 17.5133 95.3009 17.5018C95.1454 17.4904 94.9963 17.4355 94.8704 17.3435C94.7445 17.2515 94.647 17.126 94.5889 16.9813C94.5308 16.8366 94.5144 16.6785 94.5417 16.525L95.375 11.8333L91.9417 8.5C91.8346 8.3931 91.7586 8.25905 91.7219 8.11224C91.6852 7.96543 91.6892 7.81139 91.7334 7.66666C91.7817 7.51856 91.8705 7.38696 91.9898 7.28679C92.1091 7.18663 92.2541 7.12192 92.4084 7.1L97.1584 6.40833L99.25 2.13333C99.3183 1.99244 99.4248 1.87362 99.5575 1.79047C99.6901 1.70733 99.8435 1.66324 100 1.66324C100.157 1.66324 100.31 1.70733 100.443 1.79047C100.575 1.87362 100.682 1.99244 100.75 2.13333L102.867 6.4L107.617 7.09166C107.771 7.11358 107.916 7.1783 108.035 7.27846C108.155 7.37862 108.243 7.51022 108.292 7.65833C108.336 7.80306 108.34 7.95709 108.303 8.10391C108.266 8.25072 108.19 8.38477 108.083 8.49166L104.65 11.825L105.483 16.5167C105.513 16.6729 105.498 16.8344 105.438 16.982C105.379 17.1297 105.279 17.2574 105.15 17.35C104.999 17.4557 104.817 17.5085 104.633 17.5Z" fill="#FFBA3E"/>
</svg>
